<?xml version="1.0" encoding="UTF-8"?>
<svg id="Layer_1" data-name="Layer 1" xmlns="http://www.w3.org/2000/svg" viewBox="0 0 784 834">
  <path d="M784,392C784,175.5,608.5,0,392,0S0,175.5,0,392c0,4.19.07,8.36.21,12.51-.14,1.48-.21,2.98-.21,4.49v375c0,27.61,22.39,50,50,50h684c27.61,0,50-22.39,50-50v-375c0-1.51-.07-3.01-.21-4.49.14-4.15.21-8.32.21-12.51ZM708,335.5c0,34.52-27.98,62.5-62.5,62.5H128.5c-34.52,0-62.5-27.98-62.5-62.5v-21c0-34.52,27.98-62.5,62.5-62.5h517c34.52,0,62.5,27.98,62.5,62.5v21Z" fill="#794db6"/>
  <rect x="66" y="252" width="642" height="146" rx="62.5" ry="62.5" fill="#fff"/>
  <rect x="66" y="252" width="642" height="146" rx="62.5" ry="62.5" fill="#2b45a2"/>
  <path d="M676.547,314.5v21c0,34.52-25.238,62.5-56.376,62.5H153.829c-31.138,0-56.376-27.98-56.376-62.5v-21c0-34.52,25.238-62.5,56.376-62.5h466.341c31.138,0,56.376,27.98,56.376,62.5Z" fill="#ffc9d5"/>
  <path d="M301.011,342.433c0,5.775-.899,11.348-2.568,16.567h-103.731c-1.668-5.219-2.568-10.792-2.568-16.567,0-30.069,24.365-54.433,54.433-54.433s54.433,24.365,54.433,54.433Z" fill="#2b45a2"/>
  <path d="M581.856,342.433c0,5.775-.899,11.348-2.568,16.567h-103.731c-1.668-5.219-2.568-10.792-2.568-16.567,0-30.069,24.365-54.433,54.433-54.433s54.433,24.365,54.433,54.433Z" fill="#2b45a2"/>
  <circle cx="562.653" cy="316.42" r="19.203" fill="#fff"/>
  <circle cx="281.808" cy="316.42" r="19.203" fill="#fff"/>
</svg>