<?xml version="1.0" encoding="UTF-8"?>
<svg id="Layer_1" data-name="Layer 1" xmlns="http://www.w3.org/2000/svg" viewBox="0 0 1109 1076.418">
  <path d="M690.714,184.425c30.815,69.471,20.328,167.391,20.492,243.49.202,93.431-.193,186.896.051,280.342.607,1.862-1.167,4.188-1.256,5.336-18.047,1.273-31.881,13.866-36.327,31.178-32.426-3.817-57.685,31.649-39.849,60.063,2.322,3.699,10.492,9.554,9.964,12.928-.221,1.412-13.185,6.002-15.686,7.402-17.415,9.748-28.119,28.662-27.797,48.747-23.848,11.544-45.96,18.773-72.94,20.48-76.138,4.818-157.176-3.566-233.824-.008-26.981-3.052-49.067-22.446-53.661-49.402-.436-2.561-1.615-5.036-1.26-7.78.324-136.829-.244-273.679.055-410.492.173-79.28-10.701-169.991,21.698-242.284h430.34ZM297.742,372.467c2.501.366,5.023,1.654,7.78,1.261,111.217-4.517,226.938,5.816,337.632,0,3.025-.159,5.242-.984,7.78-1.261,6.006-.655,9.904-.308,15.998-2.686,34.077-13.299,29.2-70.247-8.474-75.353l-360.165-.363c-45.744,3.311-50.506,71.096-.551,78.402Z" fill="#583e6b"/>
  <path d="M875.146,703.951c.066,10.263-.958,22.643,0,32.546-6.359,3.426-13.723,2.914-19.898,7.224-5.738,4.004-11.28,12.01-12.359,18.982-2.077,13.424-1.816,55.643-.297,69.631.798,7.352,4.36,11.537,7.24,17.471,6.129,12.629,12.512,24.116,25.314,31.34,0,10.821-1.907,41.16,2.17,49.059,3.33,6.452,10.609,10.15,17.721,10.107,2.705-.016,5.266-1.393,7.834-1.307,17.515.59,37.092,2.776,54.891,1.249,28.078-2.408,31.481-22.64,31.901-45.848,15.892-2.157,34.584-14.249,44.601-26.519-1.451,24.081,1.93,50.352.043,74.175-2.134,26.959-24.35,50.622-51.423,53.448-30.784,3.213-80.118,1.412-112,.191-9.083-.348-16.313-3.715-26.423.012l-741.377-.074c-26.279-2.753-48.789-24.645-51.231-51.229-3.658-39.821,13.352-106.15,31.322-141.614.196-.387,5.17-2.126,4.743-6.497l2.467-.726c14.356,22.925,39.902,40.221,66.318,46.402,26.518,6.205,56.017,1.558,83.179,3.01,4.594,26.956,26.68,46.35,53.661,49.402,76.648-3.558,157.686,4.825,233.824.008,26.98-1.707,49.093-8.936,72.94-20.48,16.164-7.825,32.354-16.917,45.807-28.929l128.428.049,29.328-6.236c2.674-29.047-5.4-63.773,5.966-91.065,9.224-22.149,29.952-37.847,53.256-42.574,3.955-.802,7.967-1.552,12.054-1.205Z" fill="#654295"/>
  <path d="M690.714,184.425h-430.34C343.79-1.703,608.244-1.5,690.714,184.425Z" fill="#916abc"/>
  <path d="M239.882,844.982c-27.162-1.452-56.661,3.195-83.179-3.01-26.417-6.181-51.962-23.476-66.318-46.402l-2.467.726c.428,4.371-4.546,6.11-4.743,6.497-13.289-21.438-18.515-49.805-10.897-74.18,14.272-24.033,27.309-48.842,41.736-72.778,44.886-74.472,98.297-144.952,124.662-229.126-.299,136.814.269,273.663-.055,410.492-.354,2.744.824,5.219,1.26,7.78Z" fill="#916abc"/>
  <path d="M863.091,705.156c-23.305,4.727-44.032,20.426-53.256,42.574-11.366,27.292-3.292,62.018-5.966,91.065l-29.328,6.236-128.428-.049c37.306-33.311,60.045-81.776,63.888-131.388.089-1.148,1.864-3.474,1.256-5.336-.244-93.447.151-186.911-.051-280.342,32.756,101.68,103.084,183.766,151.885,277.241Z" fill="#916abc"/>
  <path d="M964.348,687.075c8.036-.428,17.211-.21,25.314,0,5.682.147,11.729-.445,17.33.148,23.031,2.438,42.185,21.883,44.19,45.011,1.787,20.612,2.524,86.11-1.843,104.319-.926,3.859-2.76,7.235-4.227,10.84-9.446,12.387-21.836,22.235-38.12,23.96-5.597.593-11.651.008-17.33.148-30.007.744-65.59-.069-74.737-36.162-4.075-16.079-2.576-83.627-1.263-103.113.201-2.986.533-6.11,1.263-8.988,5.769-22.758,27.446-34.99,49.423-36.162Z" fill="#fdc3c1"/>
  <path d="M873.94,238.668l.012,53.037,33.74-53.037c39.985-.037,80.005.081,120.007-.066,5.294-.12,4.363,5.984,7.855,9.039l-.086,115.182c-.246-1.036-1.199-1.681-1.288-4.08-1.284-34.718,1.63-69.731-.52-104.417l-.603,108.498c-12.568-3.735-23.739-15.331-28.772-27.28-.685-1.627-3.774-11.019-3.774-11.896v-27.121l-22.848-1.144c-3.333,35.726-35.534,55.9-69.944,48.177-2.09,34.645-33.928,57.027-67.53,49.398v-154.291c11.232-.049,22.52.025,33.752,0Z" fill="#54c1da"/>
  <path d="M840.188,392.959c33.602,7.629,65.44-14.754,67.53-49.398,34.411,7.722,66.611-12.451,69.944-48.177l22.848,1.144v27.121c0,.877,3.089,10.269,3.774,11.896,5.033,11.949,16.204,23.545,28.772,27.28l1.205,1.205c1.133,1.623,1.112,3.46,1.258,5.345,1.794,23.082-1.445,48.474-.053,71.8-62.454-3.177-132.233-.695-195.28,0v-48.216Z" fill="#fdc888"/>
  <path d="M1055.961,517.115c1.461,1.457,2.215,3.287,2.467,5.364.481,3.97.431,27.122-.681,29.571-.28.617-4.459,4.844-4.8,4.844h-63.285c-.031,8.018.042,16.09,0,24.108-31.582,9.554-45.38,46.924-29.554,75.96,1.549,2.842,7.76,10.032,7.901,11.479.364,3.726-5.895,13.127-3.662,18.636-21.977,1.171-43.654,13.404-49.423,36.162l-1.199-166.351c-12.841-.036-25.739.069-38.58.006-16.052-.079-32.165.113-48.217,0v-42.189c75.225,0,150.56-.258,225.756.31,1.093.559,2.422,1.248,3.277,2.101Z" fill="#a06b74"/>
  <path d="M840.188,441.175c63.047-.695,132.826-3.177,195.28,0,10.137.516,19.91,2.726,22.367,14.398,1.99,9.454,1.412,39.582.586,50.141-.333,4.258-2.128,7.311-2.461,11.401-.855-.853-2.184-1.542-3.277-2.101-75.195-.568-150.53-.31-225.756-.31h-1.205c.688-2.146,1.126-4.291,1.251-6.57.706-12.923,1.71-41.136-.123-53.02-.86-5.578-5.344-8.529-8.36-12.734,7.063-.228,14.374-1.125,21.698-1.205Z" fill="#c3bdc8"/>
  <path d="M875.146,556.893c12.841.063,25.739-.042,38.58-.006l1.199,166.351c-.73,2.878-1.062,6.003-1.263,8.988-1.313,19.486-2.812,87.035,1.263,103.113-1.996,1.251-1.205,4.574-1.226,6.612-.255,24.297,3.005,59.151-.085,81.878-.975,7.168-5.458,10.966-10.742,15.174-2.567-.087-5.129,1.291-7.834,1.307-7.112.043-14.391-3.655-17.721-10.107-4.077-7.9-2.17-38.239-2.17-49.059v-22.903c11.278-1.26,22.733-11.608,24.768-22.846,2.07-11.427,2.079-62.169,0-73.643-2.158-11.913-13.267-20.703-24.599-23.056-.489-.605-.103-1.516-.169-2.201-.958-9.903.066-22.282,0-32.546-.313-48.996.234-98.061,0-147.058Z" fill="#894d61"/>
  <path d="M840.188,238.668v153.085c-10.114-.96-18.564-6.332-26.52-12.054,0-46.992.005-94.045-.006-141.037,8.825-.018,17.701.045,26.526.006Z" fill="#4186b1"/>
  <path d="M989.662,581c-.185,35.336.138,70.738,0,106.075-8.103-.21-17.278-.428-25.314,0-2.234-5.509,4.026-14.909,3.662-18.636-.141-1.447-6.352-8.637-7.901-11.479-15.827-29.036-2.028-66.406,29.554-75.96Z" fill="#54c1da"/>
  <path d="M813.668,441.175c.749-.002,2.693,1.274,4.822,1.205,3.016,4.205,7.5,7.157,8.36,12.734,1.833,11.884.829,40.096.123,53.02-.125,2.279-.563,4.423-1.251,6.57h-31.341c-.008-1.791-1.247-4.128-1.255-6.569-.047-13.91-2.13-41.962.326-54.027,2.002-9.836,11.463-12.907,20.216-12.933Z" fill="#a7a2aa"/>
  <path d="M840.188,391.753v49.421c-7.324.081-14.635.977-21.698,1.205-2.129.069-4.073-1.208-4.822-1.205v-61.475c7.955,5.722,16.405,11.093,26.52,12.054Z" fill="#ce7e42"/>
  <path d="M825.723,514.704h1.205v42.189c-4.941-.035-31.805.912-33.226-1.129-.968-11.865-.509-23.824-.578-35.723-.013-2.267,1.261-4.546,1.257-5.337h31.341Z" fill="#894d61"/>
  <path d="M907.692,238.668l-33.74,53.037-.012-53.037c11.232-.025,22.52.01,33.752,0Z" fill="#4186b1"/>
  <path d="M1034.263,867.884c-10.017,12.269-28.709,24.361-44.601,26.519.138-7.614-.1-15.287,0-22.903,5.68-.141,11.734.444,17.33-.148,16.284-1.725,28.674-11.572,38.12-23.96-2.619,6.433-6.484,15.146-10.849,20.492Z" fill="#eaa9a8"/>
  <path d="M1035.468,362.824c.127.537-.463,1.431-1.205,1.205l-1.205-1.205.603-108.498c2.149,34.686-.764,69.699.52,104.417.089,2.4,1.043,3.044,1.288,4.08Z" fill="#71b2b8"/>
  <path d="M650.935,372.467c-2.539.277-4.755,1.102-7.78,1.261-110.694,5.816-226.415-4.517-337.632,0-2.757.394-5.279-.895-7.78-1.261-2.12-3.353-5.273-4.823-5.958-9.11-1.577-9.88-1.318-46.216-.097-56.611.625-5.321,4.48-9.235,9.321-11.171l347.58.283c4.421,2.423,7.785,5.712,8.399,10.887,1.227,10.327,1.472,46.783-.097,56.611-.684,4.286-3.838,5.757-5.958,9.11Z" fill="#fdc3c1"/>
  <path d="M710.001,713.594c-3.843,49.612-26.582,98.078-63.888,131.388-13.453,12.012-29.642,21.105-45.807,28.929-.322-20.085,10.382-38.998,27.797-48.747,2.501-1.4,15.465-5.99,15.686-7.402.528-3.373-7.642-9.229-9.964-12.928-17.836-28.414,7.423-63.88,39.849-60.063,4.446-17.312,18.279-29.904,36.327-31.178Z" fill="#53c0d9"/>
  <path d="M650.935,372.467c2.12-3.353,5.273-4.823,5.958-9.11,1.569-9.829,1.323-46.284.097-56.611-.615-5.175-3.978-8.464-8.399-10.887l-347.58-.283c-4.841,1.936-8.696,5.85-9.321,11.171-1.221,10.395-1.48,46.731.097,56.611.684,4.286,3.838,5.757,5.958,9.11-49.955-7.306-45.193-75.092.551-78.402l360.165.363c37.674,5.105,42.552,62.053,8.474,75.353-6.094,2.378-9.992,2.031-15.998,2.686Z" fill="#a57dcb"/>
  <path d="M875.146,736.496c.066.685-.32,1.596.169,2.201,11.333,2.353,22.441,11.142,24.599,23.056,2.079,11.474,2.07,62.216,0,73.643-2.036,11.237-13.49,21.586-24.768,22.846-10.329,1.154-17.206-3.129-25.314-8.438-2.88-5.934-6.442-10.119-7.24-17.471-1.519-13.988-1.78-56.207.297-69.631,1.079-6.972,6.622-14.978,12.359-18.982,6.175-4.31,13.539-3.798,19.898-7.224Z" fill="#fdc3c1"/>
  <path d="M989.662,871.501c-.1,7.615.138,15.288,0,22.903-.42,23.208-3.822,43.44-31.901,45.848-17.799,1.527-37.376-.659-54.891-1.249,5.284-4.207,9.768-8.006,10.742-15.174,3.091-22.727-.17-57.581.085-81.878.021-2.038-.77-5.361,1.226-6.612,9.147,36.092,44.73,36.906,74.737,36.162Z" fill="#a06b74"/>
  <path d="M875.146,858.241v22.903c-12.803-7.224-19.185-18.711-25.314-31.34,8.109,5.309,14.985,9.592,25.314,8.438Z" fill="#eaa9a8"/>
</svg>